<svg version="1.1" id="Layer_1" xmlns="http://www.w3.org/2000/svg" xmlns:xlink="http://www.w3.org/1999/xlink" x="0px" y="0px"
	 viewBox="0 0 350 265" style="enable-background:new 0 0 350 265;" xml:space="preserve">
<style type="text/css">
	.st0{fill:#EAEDEF;}
	.st1{fill:#C2CBD2;}
</style>
<g id="_575_574" transform="translate(-171 -130)">
	<rect id="Rectangle_3816" x="171" y="130" class="st0" width="350" height="265"/>
	<path id="Path_21712" class="st1" d="M378.5,222h-65c-5.2,0-9.5,4.2-9.5,9.5v59.5c0,5.2,4.3,9.5,9.5,9.5h65c5.2,0,9.5-4.2,9.5-9.5
		v-59.5C388,226.2,383.7,222,378.5,222z M358.3,236.1c5,0,9.1,4.1,9.1,9.2c0,5-4.1,9.1-9.2,9.1c-5,0-9.1-4.1-9.1-9.1
		C349.1,240.2,353.2,236.1,358.3,236.1C358.3,236.1,358.3,236.1,358.3,236.1z M375.5,291.6h-57.7c-2.5,0-3.7-1.8-2.5-4.1l15.7-31.1
		c1.1-2.3,3.3-2.5,4.9-0.4l15.8,20.6c1.3,1.7,3.7,2.1,5.4,0.9c0.2-0.2,0.4-0.3,0.6-0.5l3.9-3.9c1.4-1.5,3.7-1.6,5.2-0.3
		c0.2,0.2,0.5,0.5,0.6,0.7l10,14.3C378.9,290,378.1,291.6,375.5,291.6L375.5,291.6z"/>
</g>
</svg>
